<?xml version="1.0" encoding="UTF-8" standalone="no"?> <!-- Created with Vectornator for iOS (http://vectornator.io/) --><!DOCTYPE svg PUBLIC "-//W3C//DTD SVG 1.1//EN" "http://www.w3.org/Graphics/SVG/1.1/DTD/svg11.dtd">
<svg height="100%" style="fill-rule:evenodd;clip-rule:evenodd;stroke-linecap:round;stroke-linejoin:round;" xmlns:xlink="http://www.w3.org/1999/xlink" xmlns="http://www.w3.org/2000/svg" xml:space="preserve" width="100%" xmlns:vectornator="http://vectornator.io" version="1.1" viewBox="0 0 1024 1024">
<metadata>
<vectornator:setting key="DimensionsVisible" value="1"/>
<vectornator:setting key="SnapToGrid" value="0"/>
<vectornator:setting key="SnapToPoints" value="0"/>
<vectornator:setting key="GuidesVisible" value="1"/>
<vectornator:setting key="RulersVisible" value="1"/>
<vectornator:setting key="CMYKEnabledKey" value="0"/>
<vectornator:setting key="SnapToEdges" value="0"/>
<vectornator:setting key="DisplayWhiteBackground" value="0"/>
<vectornator:setting key="SnapToGuides" value="1"/>
<vectornator:setting key="GridSpacing" value="36"/>
<vectornator:setting key="Units" value="Pixels"/>
<vectornator:setting key="DynamicGuides" value="0"/>
<vectornator:setting key="New" value="1"/>
</metadata>
<defs/>
<g id="Layer 3 Copy Copy" vectornator:layerName="Layer 3 Copy Copy" visibility="hidden">
<path stroke="#000000" stroke-width="5" d="M391.23+503.448C338.793+524.423+317.616+676.463+387.758+676.463C391.848+676.463+401.071+678.194+403.382+674.727" fill="none" stroke-linecap="round" opacity="1" stroke-linejoin="round"/>
<path stroke="#000000" stroke-width="5" d="M488.443+473.359C488.443+454.806+550.922+513.266+555.565+519.651C588.57+565.033+601.253+661.142+547.464+688.036" fill="none" stroke-linecap="round" opacity="1" stroke-linejoin="round"/>
<path stroke="#000000" stroke-width="5" d="M443.906+458.844C419.708+457.805+398.385+468.764+391.156+488.219C381.518+514.159+400.56+545.368+433.719+557.938C466.878+570.507+501.58+559.69+511.219+533.75C520.857+507.81+501.784+476.569+468.625+464C460.335+460.858+451.972+459.19+443.906+458.844Z" fill="none" stroke-linecap="round" opacity="1" stroke-linejoin="round"/>
<path stroke="#000000" stroke-width="5" d="M464.065+509.3C462.598+509.527+459.581+499.812+459.276+497.841C458.125+490.409+465.405+485.378+471.591+484.421" fill="none" stroke-linecap="round" opacity="1" stroke-linejoin="round"/>
<path stroke="#000000" stroke-width="5" d="M451.13+543.515C449.137+542.056+448.254+538.028+447.59+535.701C446.029+530.228+445.803+523.434+450.541+519.343C452.055+518.037+453.951+518.112+455.4+517.083" fill="none" stroke-linecap="round" opacity="1" stroke-linejoin="round"/>
<path stroke="#000000" stroke-width="5" d="M477.208+538.861C478.047+534.336+484.786+532.363+487.564+528.28C489.507+525.423+492.226+522.047+492.488+518.471C492.615+516.75+493.101+514.458+492.844+512.796C492.691+511.813+491.539+509.982+492.522+509.83C493.076+509.744+494.811+515.132+494.927+515.626C496.129+520.755+495.153+526.391+491.284+530.172C490.253+531.178+476.703+541.58+477.208+538.861Z" fill="none" stroke-linecap="round" opacity="1" stroke-linejoin="round"/>
<path stroke="#000000" stroke-width="5" d="M473.367+523.349C473.278+523.363+473.189+523.377+473.1+523.391" fill="none" stroke-linecap="round" opacity="1" stroke-linejoin="round"/>
<path stroke="#000000" stroke-width="5" d="M479.046+515.754L478.778+515.795L478.469+515.569L478.561+515.281L478.561+515.281" fill="none" stroke-linecap="round" opacity="1" stroke-linejoin="round"/>
<path stroke="#000000" stroke-width="5" d="M396.05+591.563C399.756+597.041+401.771+603.476+404.953+609.274C416.53+630.371+436.294+660.463+458.974+670.304C466.739+673.674+483.052+681.247+490.546+673.123C499.783+663.108+491.796+646.785+486.164+636.753C480.77+627.143+473.467+618.654+465.897+610.686C451.073+595.083+433.564+573.608+409.661+573.348C406.957+573.318+402.696+573.176+400.433+574.974C396.262+578.288+402.447+604.749+408.319+606.778" fill="none" stroke-linecap="round" opacity="1" stroke-linejoin="round"/>
<path stroke="#000000" stroke-width="5" d="M534.981+549.24C521.242+545.193+485.702+577.734+508.859+587.783C514.354+590.167+521.924+587.13+527.634+586.951C542.372+586.489+569.858+583.662+562.556+562.233C559.573+553.478+541.73+551.228+534.981+549.24Z" fill="none" stroke-linecap="round" opacity="1" stroke-linejoin="round"/>
<path stroke="#000000" stroke-width="5" d="M405.728+612.045C401.236+621.182+402.539+632.345+401.89+642.11C400.898+657.03+400.815+679.072+411.955+690.458C417.51+696.135+430.567+695.57+437.634+695.285C447.374+694.891+457.248+697.466+467.028+697.159C475.472+696.894+484.116+694.524+492.557+694.616C503.991+694.741+515.607+691.586+527.069+691.711C533.085+691.776+541.017+692.754+545.875+688.001C551.323+682.671+550.11+673.513+552.498+666.602C561.317+641.074+552.819+612.96+549.446+587.361" fill="none" stroke-linecap="round" opacity="1" stroke-linejoin="round"/>
<path stroke="#000000" stroke-width="5" d="M429.052+574.077C440.862+575.429+453.896+572.893+465.795+572.52C478.039+572.136+489.747+577.164+501.912+575.561" fill="none" stroke-linecap="round" opacity="1" stroke-linejoin="round"/>
</g>
<g id="Layer 3 Copy" vectornator:layerName="Layer 3 Copy">
<g opacity="1">
<path stroke="#000000" stroke-width="15" d="M432.955+63.9159C341.942+60.0102+261.746+101.227+234.557+174.398C198.306+271.96+269.925+389.342+394.639+436.617C519.354+483.893+649.873+443.208+686.124+345.646C722.376+248.083+650.639+130.584+525.925+83.3091C494.746+71.4902+463.293+65.2173+432.955+63.9159Z" fill="none" stroke-linecap="round" opacity="1" stroke-linejoin="round"/>
<path stroke="#000000" stroke-width="15" d="M508.774+253.686C503.257+254.54+491.909+218.002+490.762+210.59C486.435+182.635+513.816+163.715+537.082+160.114" fill="none" stroke-linecap="round" opacity="1" stroke-linejoin="round"/>
<path stroke="#000000" stroke-width="15" d="M460.124+382.371C452.627+376.884+449.307+361.735+446.81+352.983C440.938+332.4+440.089+306.845+457.91+291.461C463.603+286.546+470.735+286.829+476.186+282.961" fill="none" stroke-linecap="round" opacity="1" stroke-linejoin="round"/>
<path stroke="#000000" stroke-width="15" d="M558.205+364.87C561.363+347.849+586.71+340.429+597.157+325.072C604.466+314.328+614.69+301.631+615.677+288.179C616.152+281.705+617.981+273.088+617.014+266.835C616.441+263.139+612.106+256.252+615.803+255.68C617.888+255.357+624.412+275.62+624.848+277.48C629.372+296.771+625.7+317.967+611.147+332.187C607.271+335.974+556.308+375.097+558.205+364.87Z" fill="none" stroke-linecap="round" opacity="1" stroke-linejoin="round"/>
<path stroke="#000000" stroke-width="15" d="M543.762+306.528C543.426+306.58+543.091+306.632+542.755+306.684" fill="none" stroke-linecap="round" opacity="1" stroke-linejoin="round"/>
<path stroke="#000000" stroke-width="15" d="M565.118+277.961L564.111+278.116L562.948+277.265L563.296+276.18L563.296+276.18" fill="none" stroke-linecap="round" opacity="1" stroke-linejoin="round"/>
<path stroke="#000000" stroke-width="15" d="M775.496+403.906C723.822+388.685+590.153+511.074+677.249+548.868C697.915+557.835+726.387+546.413+747.863+545.74C803.294+544.002+906.673+533.371+879.21+452.774C867.99+419.844+800.882+411.384+775.496+403.906Z" fill="none" stroke-linecap="round" opacity="1" stroke-linejoin="round"/>
<path stroke="#000000" stroke-width="15" d="M289.365+640.123C272.468+674.485+277.369+716.473+274.927+753.197C271.196+809.315+270.885+892.218+312.784+935.039C333.678+956.393+382.784+954.267+409.363+953.194C445.999+951.715+483.135+961.396+519.92+960.243C551.676+959.247+584.187+950.334+615.935+950.68C658.94+951.148+702.631+939.283+745.739+939.752C768.365+939.998+798.2+943.677+816.471+925.8C836.96+905.753+832.399+871.307+841.379+845.315C874.549+749.304+842.588+643.561+829.901+547.282" fill="none" stroke-linecap="round" opacity="1" stroke-linejoin="round"/>
<path stroke="#000000" stroke-width="15" d="M377.088+497.32C421.505+502.404+470.528+492.866+515.28+491.463C561.334+490.019+605.368+508.93+651.12+502.901" fill="none" stroke-linecap="round" opacity="1" stroke-linejoin="round"/>
<path stroke="#000000" stroke-width="15" d="M262.739+528.701C250.145+553.889+281.028+607.222+289.478+632.57C296.481+653.58+310.722+666.831+320.33+686.048C357.052+759.493+421.727+828.542+491.046+870.134C523.065+889.345+577.913+905.385+610.342+878.361C616.004+873.643+617.862+862.647+620.626+855.736C639.006+809.787+610.149+767.934+590.802+729.241C574.445+696.527+552.544+672.934+530.126+644.911C518.132+629.919+508.498+612.999+495.16+599.661C476.635+581.136+451.899+568.742+433.455+550.298C414.662+531.504+398.654+513.141+376.893+496.82C366.227+488.821+349.283+488.619+336.785+486.536C220.644+467.179+270.047+599.88+297.705+655.196" fill="none" stroke-linecap="round" opacity="1" stroke-linejoin="round"/>
<path stroke="#000000" stroke-width="15" d="M221.602+237.66C-30.1856+300.607+26.7923+945.208+316.216+945.208" fill="none" stroke-linecap="round" opacity="1" stroke-linejoin="round"/>
<path stroke="#000000" stroke-width="15" d="M595.944+115.279C767.508+29.4972+1170.63+747.339+828.365+918.469" fill="none" stroke-linecap="round" opacity="1" stroke-linejoin="round"/>
</g>
</g>
</svg>
