<?xml version="1.0" encoding="UTF-8" standalone="no"?> <!-- Created with Vectornator for iOS (http://vectornator.io/) --><!DOCTYPE svg PUBLIC "-//W3C//DTD SVG 1.1//EN" "http://www.w3.org/Graphics/SVG/1.1/DTD/svg11.dtd">
<svg height="100%" style="fill-rule:evenodd;clip-rule:evenodd;stroke-linecap:round;stroke-linejoin:round;" xmlns:xlink="http://www.w3.org/1999/xlink" xmlns="http://www.w3.org/2000/svg" xml:space="preserve" width="100%" xmlns:vectornator="http://vectornator.io" version="1.1" viewBox="0 0 1024 1024">
<metadata>
<vectornator:setting key="DimensionsVisible" value="1"/>
<vectornator:setting key="New" value="1"/>
<vectornator:setting key="SnapToPoints" value="0"/>
<vectornator:setting key="GuidesVisible" value="1"/>
<vectornator:setting key="RulersVisible" value="1"/>
<vectornator:setting key="CMYKEnabledKey" value="0"/>
<vectornator:setting key="SnapToEdges" value="0"/>
<vectornator:setting key="DisplayWhiteBackground" value="0"/>
<vectornator:setting key="SnapToGuides" value="1"/>
<vectornator:setting key="GridSpacing" value="36"/>
<vectornator:setting key="Units" value="Pixels"/>
<vectornator:setting key="DynamicGuides" value="0"/>
<vectornator:setting key="SnapToGrid" value="0"/>
</metadata>
<defs/>
<g id="Layer 3 Copy" vectornator:layerName="Layer 3 Copy" visibility="hidden">
<g opacity="1">
<path stroke="#000000" stroke-width="15" d="M432.955+63.9159C341.942+60.0102+261.746+101.227+234.557+174.398C198.306+271.96+269.925+389.342+394.639+436.617C519.354+483.893+649.873+443.208+686.124+345.646C722.376+248.083+650.639+130.584+525.925+83.3091C494.746+71.4902+463.293+65.2173+432.955+63.9159Z" fill="none" stroke-linecap="round" opacity="1" stroke-linejoin="round"/>
<path stroke="#000000" stroke-width="15" d="M508.774+253.686C503.257+254.54+491.909+218.002+490.762+210.59C486.435+182.635+513.816+163.715+537.082+160.114" fill="none" stroke-linecap="round" opacity="1" stroke-linejoin="round"/>
<path stroke="#000000" stroke-width="15" d="M460.124+382.371C452.627+376.884+449.307+361.735+446.81+352.983C440.938+332.4+440.089+306.845+457.91+291.461C463.603+286.546+470.735+286.829+476.186+282.961" fill="none" stroke-linecap="round" opacity="1" stroke-linejoin="round"/>
<path stroke="#000000" stroke-width="15" d="M558.205+364.87C561.363+347.849+586.71+340.429+597.157+325.072C604.466+314.328+614.69+301.631+615.677+288.179C616.152+281.705+617.981+273.088+617.014+266.835C616.441+263.139+612.106+256.252+615.803+255.68C617.888+255.357+624.412+275.62+624.848+277.48C629.372+296.771+625.7+317.967+611.147+332.187C607.271+335.974+556.308+375.097+558.205+364.87Z" fill="none" stroke-linecap="round" opacity="1" stroke-linejoin="round"/>
<path stroke="#000000" stroke-width="15" d="M543.762+306.528C543.426+306.58+543.091+306.632+542.755+306.684" fill="none" stroke-linecap="round" opacity="1" stroke-linejoin="round"/>
<path stroke="#000000" stroke-width="15" d="M565.118+277.961L564.111+278.116L562.948+277.265L563.296+276.18L563.296+276.18" fill="none" stroke-linecap="round" opacity="1" stroke-linejoin="round"/>
<path stroke="#000000" stroke-width="15" d="M775.496+403.906C723.822+388.685+590.153+511.074+677.249+548.868C697.915+557.835+726.387+546.413+747.863+545.74C803.294+544.002+906.673+533.371+879.21+452.774C867.99+419.844+800.882+411.384+775.496+403.906Z" fill="none" stroke-linecap="round" opacity="1" stroke-linejoin="round"/>
<path stroke="#000000" stroke-width="15" d="M289.365+640.123C272.468+674.485+277.369+716.473+274.927+753.197C271.196+809.315+270.885+892.218+312.784+935.039C333.678+956.393+382.784+954.267+409.363+953.194C445.999+951.715+483.135+961.396+519.92+960.243C551.676+959.247+584.187+950.334+615.935+950.68C658.94+951.148+702.631+939.283+745.739+939.752C768.365+939.998+798.2+943.677+816.471+925.8C836.96+905.753+832.399+871.307+841.379+845.315C874.549+749.304+842.588+643.561+829.901+547.282" fill="none" stroke-linecap="round" opacity="1" stroke-linejoin="round"/>
<path stroke="#000000" stroke-width="15" d="M377.088+497.32C421.505+502.404+470.528+492.866+515.28+491.463C561.334+490.019+605.368+508.93+651.12+502.901" fill="none" stroke-linecap="round" opacity="1" stroke-linejoin="round"/>
<path stroke="#000000" stroke-width="15" d="M262.739+528.701C250.145+553.889+281.028+607.222+289.478+632.57C296.481+653.58+310.722+666.831+320.33+686.048C357.052+759.493+421.727+828.542+491.046+870.134C523.065+889.345+577.913+905.385+610.342+878.361C616.004+873.643+617.862+862.647+620.626+855.736C639.006+809.787+610.149+767.934+590.802+729.241C574.445+696.527+552.544+672.934+530.126+644.911C518.132+629.919+508.498+612.999+495.16+599.661C476.635+581.136+451.899+568.742+433.455+550.298C414.662+531.504+398.654+513.141+376.893+496.82C366.227+488.821+349.283+488.619+336.785+486.536C220.644+467.179+270.047+599.88+297.705+655.196" fill="none" stroke-linecap="round" opacity="1" stroke-linejoin="round"/>
<path stroke="#000000" stroke-width="15" d="M221.602+237.66C-30.1856+300.607+26.7923+945.208+316.216+945.208" fill="none" stroke-linecap="round" opacity="1" stroke-linejoin="round"/>
<path stroke="#000000" stroke-width="15" d="M595.944+115.279C767.508+29.4972+1170.63+747.339+828.365+918.469" fill="none" stroke-linecap="round" opacity="1" stroke-linejoin="round"/>
</g>
</g>
<g id="Layer 1" vectornator:layerName="Layer 1">
<path stroke="#000000" stroke-width="15" d="M505.393+44.771C426.384-0.574155+336.216-0.88029+278.409+51.575C201.333+121.516+210.909+258.687+299.884+358.045C388.86+457.403+523.462+481.337+600.539+411.396C677.616+341.454+667.988+204.124+579.013+104.767C556.77+79.9275+531.73+59.8856+505.393+44.771Z" fill="none" stroke-linecap="round" opacity="1" stroke-linejoin="round"/>
<path stroke="#000000" stroke-width="15" d="M485.391+248.145C480.1+246.365+486.836+208.703+489.228+201.594C498.249+174.784+531.265+170.584+553.579+178.092" fill="none" stroke-linecap="round" opacity="1" stroke-linejoin="round"/>
<path stroke="#000000" stroke-width="15" d="M382.985+340.013C378.854+331.693+382.877+316.715+384.687+307.795C388.944+286.818+399.949+263.739+422.85+258.28C430.166+256.536+436.368+260.069+442.987+259.142" fill="none" stroke-linecap="round" opacity="1" stroke-linejoin="round"/>
<path stroke="#000000" stroke-width="15" d="M478.12+369.605C488.755+355.946+514.674+361.021+531.015+352.193C542.448+346.017+557.368+339.448+564.434+327.959C567.835+322.43+573.424+315.62+575.442+309.623C576.634+306.078+575.954+297.969+579.499+299.162C581.499+299.835+577.968+320.827+577.499+322.679C572.639+341.889+559.627+359.018+540.162+364.947C534.979+366.526+471.73+377.812+478.12+369.605Z" fill="none" stroke-linecap="round" opacity="1" stroke-linejoin="round"/>
<path stroke="#000000" stroke-width="15" d="M492.141+311.16C491.819+311.052+491.497+310.943+491.175+310.835" fill="none" stroke-linecap="round" opacity="1" stroke-linejoin="round"/>
<path stroke="#000000" stroke-width="15" d="M524.247+295.623L523.281+295.298L522.64+294.007L523.448+293.204L523.448+293.204" fill="none" stroke-linecap="round" opacity="1" stroke-linejoin="round"/>
<path stroke="#000000" stroke-width="15" d="M909.591+377.943C963.436+376.35+1052.45+218.477+957.918+209.625C935.489+207.525+911.977+227.23+891.773+234.545C839.628+253.425+744.672+295.659+795.825+363.729C816.724+391.541+883.139+378.725+909.591+377.943Z" fill="none" stroke-linecap="round" opacity="1" stroke-linejoin="round"/>
<path stroke="#000000" stroke-width="15" d="M262.739+528.701C250.145+553.889+281.028+607.222+289.478+632.57C296.481+653.58+310.722+666.831+320.33+686.048C357.052+759.493+421.727+828.542+491.046+870.134C523.065+889.345+577.913+905.385+610.342+878.361C616.004+873.643+617.862+862.647+620.626+855.736C639.006+809.787+610.149+767.934+590.802+729.241C574.445+696.527+552.544+672.934+530.126+644.911C518.132+629.919+508.498+612.999+495.16+599.661C476.635+581.136+451.899+568.742+433.455+550.298C414.662+531.504+398.654+513.141+376.893+496.82C366.227+488.821+349.283+488.619+336.785+486.536C220.644+467.179+270.047+599.88+297.705+655.196" fill="none" stroke-linecap="round" opacity="1" stroke-linejoin="round"/>
<path stroke="#000000" stroke-width="15" d="M221.602+237.66C-30.1856+300.607+26.7923+945.208+316.216+945.208" fill="none" stroke-linecap="round" opacity="1" stroke-linejoin="round"/>
<path stroke="#000000" stroke-width="15" d="M595.944+115.279C767.508+29.4972+1170.63+747.339+828.365+918.469" fill="none" stroke-linecap="round" opacity="1" stroke-linejoin="round"/>
</g>
</svg>
